<svg display="block" id="2456418218" role="presentation" viewBox="0 0 40 16" xmlns="http://www.w3.org/2000/svg"><path d="M 7.088 0 C 8.511 0 8.893 0.016 8.872 0.073 C 8.821 0.219 5.974 13.835 5.992 13.852 C 6.002 13.862 7.014 11.494 8.242 8.589 L 10.475 3.307 L 12.885 3.276 L 12.855 11.093 L 11.981 11.109 C 11.5 11.118 11.088 11.105 11.064 11.08 C 11.04 11.055 11.213 9.585 11.448 7.815 C 11.684 6.044 11.865 4.584 11.852 4.57 C 11.839 4.556 11.803 4.569 11.773 4.6 C 11.731 4.641 8.237 12.84 7.69 14.18 L 7.601 14.4 L 3.98 14.4 L 4.011 14.268 C 4.134 13.743 6.9 0.497 6.889 0.486 C 6.881 0.478 5.877 2.835 4.658 5.723 C 3.438 8.612 2.415 11.009 2.384 11.049 C 2.343 11.103 2.026 11.122 1.164 11.122 L 0 11.122 L 0 3.278 L 1.858 3.278 L 1.836 3.41 C 1.733 4.019 1.004 9.803 1.027 9.826 C 1.043 9.842 1.08 9.831 1.109 9.801 C 1.138 9.771 2.075 7.573 3.193 4.917 C 4.31 2.261 5.236 0.068 5.251 0.044 C 5.266 0.02 6.092 0 7.088 0 Z M 16.749 3.278 L 18.634 3.278 L 18.599 3.498 C 18.58 3.618 18.394 5.034 18.185 6.644 C 17.976 8.254 17.795 9.637 17.782 9.717 C 17.763 9.832 17.771 9.844 17.817 9.773 C 17.85 9.723 18.487 8.248 19.232 6.495 L 20.588 3.307 L 21.509 3.291 C 22.016 3.282 22.43 3.286 22.43 3.298 C 22.43 3.311 21.694 5.07 20.794 7.207 L 19.157 11.093 L 16.779 11.093 Z M 23.664 3.278 C 24.533 3.278 24.603 3.286 24.574 3.38 C 24.557 3.437 24.186 5.178 23.75 7.249 C 23.315 9.32 22.943 11.039 22.925 11.068 C 22.886 11.132 21.16 11.141 21.124 11.078 C 21.11 11.054 21.464 9.309 21.91 7.2 C 22.355 5.091 22.721 3.346 22.722 3.322 C 22.723 3.298 23.147 3.278 23.664 3.278 Z M 25.37 3.268 L 26.814 3.295 C 27.632 3.311 28.375 3.352 28.53 3.391 C 28.971 3.503 29.402 3.797 29.603 4.122 C 29.763 4.382 29.78 4.457 29.778 4.883 C 29.775 5.445 29.703 5.715 29.445 6.142 C 29.182 6.578 28.861 6.791 28.053 7.067 C 27.993 7.088 28.014 7.112 28.121 7.142 C 28.595 7.279 28.984 7.649 29.108 8.083 C 29.198 8.396 29.175 8.913 29.055 9.3 C 28.763 10.237 28.199 10.725 27.116 10.976 C 26.625 11.09 23.87 11.181 23.778 11.086 C 23.741 11.047 24.709 6.285 25.334 3.434 Z M 30.872 3.278 L 32.142 3.28 C 33.584 3.282 34.172 3.36 34.666 3.613 C 35.494 4.035 35.696 4.956 35.184 5.969 C 34.949 6.433 34.575 6.737 34.015 6.918 L 33.624 7.045 L 33.913 7.143 C 34.268 7.263 34.421 7.394 34.561 7.698 C 34.712 8.027 34.697 8.398 34.493 9.401 C 34.396 9.881 34.3 10.465 34.28 10.699 L 34.243 11.125 L 32.474 11.093 L 32.485 10.68 C 32.491 10.453 32.577 9.9 32.676 9.451 C 32.774 9.002 32.855 8.499 32.855 8.332 C 32.855 7.913 32.696 7.785 32.174 7.785 C 31.969 7.785 31.801 7.799 31.801 7.815 C 31.801 7.891 31.09 11.029 31.063 11.072 C 31.026 11.133 29.3 11.139 29.263 11.078 C 29.249 11.054 29.576 9.427 29.991 7.463 C 30.405 5.5 30.773 3.754 30.808 3.585 Z M 38.827 3.278 L 40 3.278 L 40 11.122 L 38.185 11.122 L 38.185 10.961 C 38.185 10.872 38.37 9.407 38.596 7.704 C 38.822 6.001 38.998 4.599 38.988 4.589 C 38.978 4.578 38.35 6.038 37.594 7.831 L 36.218 11.093 L 35.298 11.109 C 34.792 11.118 34.378 11.113 34.378 11.098 C 34.378 11.084 35.092 9.377 35.965 7.307 C 36.838 5.236 37.575 3.482 37.603 3.41 C 37.654 3.279 37.665 3.278 38.827 3.278 Z M 32.473 4.58 C 32.458 4.621 32.37 5.029 32.278 5.488 L 32.11 6.322 L 32.497 6.322 C 32.993 6.322 33.25 6.198 33.428 5.872 C 33.723 5.334 33.645 4.793 33.244 4.603 C 33.003 4.489 32.512 4.475 32.473 4.58 Z M 26.799 5.4 C 26.707 5.859 26.617 6.271 26.6 6.316 C 26.551 6.447 27.375 6.369 27.575 6.223 C 27.829 6.039 27.994 5.648 27.994 5.232 C 27.994 4.898 27.979 4.857 27.814 4.717 C 27.666 4.593 27.574 4.566 27.301 4.566 L 26.967 4.566 Z M 26.065 8.707 C 25.955 9.214 25.853 9.675 25.839 9.732 C 25.818 9.817 25.855 9.834 26.062 9.834 C 26.674 9.834 27.069 9.534 27.262 8.92 C 27.401 8.476 27.354 8.157 27.118 7.946 C 26.966 7.81 26.886 7.785 26.602 7.785 L 26.265 7.785 Z" fill="rgb(235, 235, 235)" height="14.4px" id="QCtBIDTa2" transform="translate(0 0.8)" width="40.00000198567707px"/></svg>